<svg width="230" height="200" viewBox="0 0 230 200" fill="none" xmlns="http://www.w3.org/2000/svg">
<g clip-path="url(#clip0)">
<path d="M132.155 120.283L105.528 128.221L110.406 144.584L137.033 136.646L132.155 120.283Z" fill="url(#paint0_linear)"/>
<path d="M131.7 120.859L105.975 128.528L110.528 143.801L136.253 136.132L131.7 120.859Z" fill="white"/>
<g opacity="0.6">
<path opacity="0.6" d="M108.174 131.752L111.448 130.776L110.726 128.353L107.452 129.329L108.174 131.752Z" fill="#3273DC"/>
<path opacity="0.6" d="M112.264 135.662L124.83 131.916L124.596 131.131L112.03 134.877L112.264 135.662Z" fill="#3273DC"/>
<path opacity="0.6" d="M116.176 136.349L125.339 133.617L125.183 133.094L116.02 135.825L116.176 136.349Z" fill="#3273DC"/>
</g>
<path d="M173.65 81.4897L170.386 98.25L197.659 103.561L200.923 86.8008L173.65 81.4897Z" fill="url(#paint1_linear)"/>
<path d="M173.474 82.2276L170.446 97.8462L196.753 102.946L199.781 87.3278L173.474 82.2276Z" fill="white"/>
<g opacity="0.6">
<path opacity="0.6" d="M174.327 85.8673L177.68 86.5203L178.164 84.0393L174.81 83.3863L174.327 85.8673Z" fill="#3273DC"/>
<path opacity="0.6" d="M176.137 91.2286L189.008 93.7351L189.165 92.9307L176.294 90.4242L176.137 91.2286Z" fill="#3273DC"/>
<path opacity="0.6" d="M179.285 93.6528L188.67 95.4805L188.775 94.9442L179.39 93.1165L179.285 93.6528Z" fill="#3273DC"/>
</g>
<path d="M190.611 114.578L174.946 121.374L186.003 146.864L201.668 140.069L190.611 114.578Z" fill="url(#paint2_linear)"/>
<path d="M190.357 115.062L175.736 121.404L186.419 146.03L201.04 139.688L190.357 115.062Z" fill="white"/>
<g opacity="0.6">
<path opacity="0.6" d="M187.379 117.62L188.739 120.754L191.058 119.748L189.698 116.614L187.379 117.62Z" fill="#47E6B1"/>
<path opacity="0.6" d="M183.984 122.147L189.202 134.177L189.954 133.851L184.736 121.821L183.984 122.147Z" fill="#47E6B1"/>
<path opacity="0.6" d="M183.766 126.113L187.571 134.885L188.072 134.667L184.267 125.896L183.766 126.113Z" fill="#47E6B1"/>
</g>
<path d="M114.529 39.79L87.9023 47.7278L92.7805 64.0913L119.407 56.1535L114.529 39.79Z" fill="url(#paint3_linear)"/>
<path d="M114.074 40.3688L88.3491 48.0376L92.9022 63.3107L118.627 55.6419L114.074 40.3688Z" fill="white"/>
<g opacity="0.6">
<path opacity="0.6" d="M90.5332 51.2662L93.8069 50.2903L93.0848 47.868L89.8111 48.844L90.5332 51.2662Z" fill="#F55F44"/>
<path opacity="0.6" d="M94.6257 55.1766L107.192 51.4304L106.958 50.645L94.3916 54.3912L94.6257 55.1766Z" fill="#F55F44"/>
<path opacity="0.6" d="M98.5352 55.8636L107.698 53.1321L107.542 52.6085L98.3791 55.34L98.5352 55.8636Z" fill="#F55F44"/>
</g>
<path d="M156.018 1.00093L152.754 17.7612L180.026 23.0724L183.29 6.31207L156.018 1.00093Z" fill="url(#paint4_linear)"/>
<path d="M156.272 1.48446L153.225 17.1279L179.574 22.2591L182.62 6.61562L156.272 1.48446Z" fill="white"/>
<g opacity="0.6">
<path opacity="0.6" d="M156.694 5.37997L160.047 6.03296L160.53 3.55198L157.177 2.89899L156.694 5.37997Z" fill="#3273DC"/>
<path opacity="0.6" d="M158.504 10.7415L171.375 13.248L171.532 12.4436L158.661 9.9371L158.504 10.7415Z" fill="#3273DC"/>
<path opacity="0.6" d="M161.652 13.1635L171.037 14.9912L171.142 14.4549L161.757 12.6273L161.652 13.1635Z" fill="#3273DC"/>
</g>
<path d="M172.975 34.0919L157.31 40.887L168.367 66.3771L184.032 59.582L172.975 34.0919Z" fill="url(#paint5_linear)"/>
<path d="M172.724 34.5738L158.103 40.916L168.785 65.5423L183.406 59.2001L172.724 34.5738Z" fill="white"/>
<g opacity="0.6">
<path opacity="0.6" d="M169.747 37.1334L171.107 40.2673L173.425 39.2615L172.066 36.1275L169.747 37.1334Z" fill="#47E6B1"/>
<path opacity="0.6" d="M166.349 41.661L171.567 53.6907L172.319 53.3645L167.101 41.3348L166.349 41.661Z" fill="#47E6B1"/>
<path opacity="0.6" d="M166.132 45.6292L169.937 54.4009L170.438 54.1835L166.633 45.4118L166.132 45.6292Z" fill="#47E6B1"/>
</g>
<path d="M39.7221 100.366L13.0952 108.303L17.9734 124.667L44.6003 116.729L39.7221 100.366Z" fill="url(#paint6_linear)"/>
<path d="M39.2693 100.943L13.5447 108.612L18.0978 123.885L43.8224 116.217L39.2693 100.943Z" fill="white"/>
<g opacity="0.6">
<path opacity="0.6" d="M15.7414 111.851L19.0151 110.875L18.293 108.453L15.0193 109.429L15.7414 111.851Z" fill="#3273DC"/>
<path opacity="0.6" d="M19.834 115.762L32.4001 112.015L32.166 111.23L19.5998 114.976L19.834 115.762Z" fill="#3273DC"/>
<path opacity="0.6" d="M23.7461 116.448L32.9089 113.716L32.7528 113.193L23.59 115.924L23.7461 116.448Z" fill="#3273DC"/>
</g>
<path d="M81.219 61.581L77.9551 78.3413L105.228 83.6524L108.492 66.8921L81.219 61.581Z" fill="url(#paint7_linear)"/>
<path d="M81.1804 62.1976L78.1523 77.8162L104.459 82.9164L107.487 67.2978L81.1804 62.1976Z" fill="white"/>
<g opacity="0.6">
<path opacity="0.6" d="M81.893 65.9574L85.2461 66.6104L85.7292 64.1294L82.3762 63.4764L81.893 65.9574Z" fill="#F55F44"/>
<path opacity="0.6" d="M83.7058 71.3194L96.5767 73.8259L96.7333 73.0215L83.8624 70.515L83.7058 71.3194Z" fill="#F55F44"/>
<path opacity="0.6" d="M86.8532 73.7436L96.2383 75.5713L96.3427 75.035L86.9577 73.2073L86.8532 73.7436Z" fill="#F55F44"/>
</g>
<path d="M98.1776 94.6705L82.5127 101.466L93.5697 126.956L109.235 120.161L98.1776 94.6705Z" fill="url(#paint8_linear)"/>
<path d="M97.9265 95.1524L83.3054 101.495L93.9877 126.121L108.609 119.779L97.9265 95.1524Z" fill="white"/>
<g opacity="0.6">
<path opacity="0.6" d="M94.9477 97.712L96.3071 100.846L98.6259 99.8401L97.2665 96.7061L94.9477 97.712Z" fill="#47E6B1"/>
<path opacity="0.6" d="M91.5523 102.237L96.7705 114.267L97.5224 113.94L92.3042 101.911L91.5523 102.237Z" fill="#47E6B1"/>
<path opacity="0.6" d="M91.335 106.204L95.1399 114.976L95.6411 114.758L91.8362 105.987L91.335 106.204Z" fill="#47E6B1"/>
</g>
<path d="M42.8552 52.2995L16.2283 60.2373L21.1064 76.6008L47.7333 68.663L42.8552 52.2995Z" fill="url(#paint9_linear)"/>
<path d="M42.8778 52.6202L17.1082 60.4048L21.73 75.7046L47.4996 67.92L42.8778 52.6202Z" fill="white"/>
<g opacity="0.6">
<path opacity="0.6" d="M18.8667 63.786L22.1404 62.8101L21.4183 60.3878L18.1446 61.3638L18.8667 63.786Z" fill="#3273DC"/>
<path opacity="0.6" d="M22.9565 67.6971L35.5227 63.9509L35.2886 63.1655L22.7224 66.9117L22.9565 67.6971Z" fill="#3273DC"/>
<path opacity="0.6" d="M26.8687 68.3834L36.0315 65.6519L35.8754 65.1283L26.7126 67.8598L26.8687 68.3834Z" fill="#3273DC"/>
</g>
<path d="M84.1261 13.7134L80.8818 30.447L108.111 35.7262L111.355 18.9925L84.1261 13.7134Z" fill="url(#paint10_linear)"/>
<path d="M84.6014 13.9994L81.5549 29.6428L107.903 34.774L110.95 19.1305L84.6014 13.9994Z" fill="white"/>
<g opacity="0.6">
<path opacity="0.6" d="M85.0241 17.8946L88.3772 18.5476L88.8603 16.0666L85.5073 15.4136L85.0241 17.8946Z" fill="#3273DC"/>
<path opacity="0.6" d="M86.8346 23.2535L99.7056 25.76L99.8622 24.9556L86.9913 22.4491L86.8346 23.2535Z" fill="#3273DC"/>
<path opacity="0.6" d="M89.9797 25.6777L99.3647 27.5054L99.4692 26.9691L90.0842 25.1414L89.9797 25.6777Z" fill="#F55F44"/>
</g>
<path d="M101.307 46.6071L85.6421 53.4021L96.6991 78.8922L112.364 72.0972L101.307 46.6071Z" fill="url(#paint11_linear)"/>
<path d="M101.053 47.0899L86.4324 53.4321L97.1146 78.0584L111.736 71.7162L101.053 47.0899Z" fill="white"/>
<g opacity="0.6">
<path opacity="0.6" d="M98.0786 49.648L99.438 52.782L101.757 51.7761L100.397 48.6422L98.0786 49.648Z" fill="#47E6B1"/>
<path opacity="0.6" d="M94.6805 54.1756L99.8987 66.2053L100.651 65.8792L95.4323 53.8495L94.6805 54.1756Z" fill="#47E6B1"/>
<path opacity="0.6" d="M94.4649 58.1378L98.2698 66.9094L98.771 66.692L94.9661 57.9204L94.4649 58.1378Z" fill="#47E6B1"/>
</g>
<path opacity="0.25" d="M16.9478 17.6984C17.7491 17.6984 18.3986 17.0489 18.3986 16.2477C18.3986 15.4464 17.7491 14.7969 16.9478 14.7969C16.1466 14.7969 15.4971 15.4464 15.4971 16.2477C15.4971 17.0489 16.1466 17.6984 16.9478 17.6984Z" fill="#535461"/>
<path opacity="0.25" d="M168.407 144.767C169.208 144.767 169.858 144.118 169.858 143.316C169.858 142.515 169.208 141.866 168.407 141.866C167.606 141.866 166.956 142.515 166.956 143.316C166.956 144.118 167.606 144.767 168.407 144.767Z" fill="#535461"/>
<path opacity="0.25" d="M40.2584 137.553C41.0596 137.553 41.7092 136.904 41.7092 136.103C41.7092 135.301 41.0596 134.652 40.2584 134.652C39.4571 134.652 38.8076 135.301 38.8076 136.103C38.8076 136.904 39.4571 137.553 40.2584 137.553Z" fill="#535461"/>
<path opacity="0.25" d="M181.894 117.359C182.695 117.359 183.344 116.71 183.344 115.908C183.344 115.107 182.695 114.458 181.894 114.458C181.092 114.458 180.443 115.107 180.443 115.908C180.443 116.71 181.092 117.359 181.894 117.359Z" fill="#535461"/>
<path opacity="0.25" d="M195.545 50.809C196.346 50.809 196.996 50.1595 196.996 49.3582C196.996 48.557 196.346 47.9075 195.545 47.9075C194.744 47.9075 194.094 48.557 194.094 49.3582C194.094 50.1595 194.744 50.809 195.545 50.809Z" fill="#535461"/>
<path opacity="0.25" d="M88.4363 1.29164H87.1473V0H86.6195V1.29164H85.3306V1.81679H86.6195V3.10578H87.1473V1.81679H88.4363V1.29164Z" fill="#535461"/>
<path opacity="0.25" d="M38.7996 21.0588H37.5106V19.7698H36.9828V21.0588H35.6938V21.5866H36.9828V22.8756H37.5106V21.5866H38.7996V21.0588Z" fill="#535461"/>
<path opacity="0.25" d="M18.6082 94.7197H17.3192V93.4307H16.7914V94.7197H15.5024V95.2474H16.7914V96.5364H17.3192V95.2474H18.6082V94.7197Z" fill="#535461"/>
<path opacity="0.25" d="M15.7093 42.1894H14.4176V40.8977H13.8925V42.1894H12.6008V42.7145H13.8925V44.0061H14.4176V42.7145H15.7093V42.1894Z" fill="#535461"/>
<path opacity="0.25" d="M3.10578 78.2863H1.81679V76.9946H1.29164V78.2863H0V78.8114H1.29164V80.1004H1.81679V78.8114H3.10578V78.2863Z" fill="#535461"/>
<path opacity="0.25" d="M230 59.673H228.711V58.384H228.183V59.673H226.894V60.2008H228.183V61.4898H228.711V60.2008H230V59.673Z" fill="#535461"/>
<path opacity="0.25" d="M185.063 76.4535H183.774V75.1619H183.246V76.4535H181.957V76.9786H183.246V78.2703H183.774V76.9786H185.063V76.4535Z" fill="#535461"/>
<path opacity="0.25" d="M146.69 31.1957H145.399V29.9067H144.874V31.1957H143.582V31.7235H144.874V33.0125H145.399V31.7235H146.69V31.1957Z" fill="#535461"/>
<path d="M72.6449 104.96C71.7166 107.973 73.1091 111.535 75.8276 113.121C76.9654 113.784 78.2783 114.121 79.3843 114.84C81.7846 116.402 82.7314 119.399 83.5112 122.154C84.405 125.324 85.3041 128.674 84.4845 131.862C83.9541 133.893 82.7738 135.692 82.0975 137.681C81.5326 139.346 81.3362 141.114 81.522 142.863C81.6201 143.791 81.8535 144.757 82.4874 145.441C83.4051 146.43 84.8744 146.579 86.2005 146.818C89.0092 147.351 91.6513 148.542 93.9104 150.294C96.1695 152.046 97.981 154.309 99.1965 156.896" stroke="url(#paint12_linear)" stroke-width="2" stroke-miterlimit="10"/>
<path d="M72.9288 104.96C72.0006 107.973 73.393 111.535 76.1115 113.121C77.2494 113.784 78.5622 114.121 79.6682 114.84C82.0685 116.402 83.0153 119.399 83.7951 122.154C84.6889 125.324 85.588 128.674 84.7685 131.862C84.238 133.893 83.0578 135.692 82.3814 137.681C81.8166 139.346 81.6202 141.114 81.8059 142.863C81.904 143.791 82.1374 144.757 82.7713 145.441C83.689 146.43 85.1583 146.579 86.4845 146.818C89.2931 147.351 91.9353 148.542 94.1943 150.294C96.4534 152.046 98.2649 154.309 99.4805 156.896" stroke="#535461" stroke-width="2" stroke-miterlimit="10"/>
<path d="M108.063 82.4478C105.774 85.6304 103.398 89.0784 103.201 92.9957C102.902 99.0243 107.71 103.955 109.877 109.593C110.809 112.077 111.231 114.722 111.117 117.372C111.003 120.022 110.356 122.622 109.214 125.016C108.153 127.188 106.665 129.345 106.848 131.75C106.96 133.22 107.694 134.554 108.286 135.904C109.737 139.287 110.371 142.964 110.135 146.638C109.899 150.312 108.8 153.878 106.928 157.047" stroke="url(#paint13_linear)" stroke-width="2" stroke-miterlimit="10"/>
<path d="M108.347 82.4478C106.058 85.6304 103.682 89.0784 103.485 92.9957C103.186 99.0243 107.994 103.955 110.161 109.593C111.093 112.077 111.515 114.722 111.402 117.372C111.289 120.022 110.642 122.622 109.501 125.016C108.44 127.188 106.952 129.345 107.135 131.75C107.246 133.22 107.981 134.554 108.572 135.904C110.024 139.287 110.657 142.964 110.421 146.638C110.185 150.312 109.087 153.878 107.214 157.047" stroke="#535461" stroke-width="2" stroke-miterlimit="10"/>
<path d="M140.198 111.161L141.304 120.179C141.45 121.377 141.569 122.685 140.932 123.706C140.322 124.674 139.179 125.136 138.28 125.852C135.363 128.199 135.628 132.708 136.625 136.323C137.622 139.938 139.086 143.821 137.686 147.298C137.108 148.733 136.095 149.95 135.323 151.276C134.029 153.579 133.517 156.238 133.861 158.856" stroke="url(#paint14_linear)" stroke-width="2" stroke-miterlimit="10"/>
<path d="M140.463 111.161L141.569 120.179C141.715 121.377 141.834 122.685 141.197 123.706C140.587 124.674 139.444 125.136 138.545 125.852C135.628 128.199 135.893 132.708 136.89 136.323C137.887 139.938 139.352 143.821 137.951 147.298C137.373 148.733 136.36 149.95 135.588 151.276C134.295 153.579 133.782 156.238 134.127 158.856" stroke="#535461" stroke-width="2" stroke-miterlimit="10"/>
<g opacity="0.7">
<path opacity="0.7" d="M168.9 74.0638C168.897 69.8432 167.895 65.6831 165.977 61.9235C164.059 58.1639 161.279 54.9112 157.864 52.4312C154.448 49.9512 150.495 48.3142 146.326 47.6538C142.158 46.9934 137.892 47.3284 133.877 48.6314C134.099 47.1279 134.213 45.6105 134.22 44.0908C134.262 37.1357 131.594 30.4374 126.781 25.4168C121.967 20.3962 115.387 17.4481 108.437 17.198C101.486 16.9478 94.7111 19.4153 89.5492 24.0769C84.3874 28.7386 81.2446 35.2277 80.7874 42.1679C76.7723 40.8624 72.5053 40.5254 68.3351 41.1844C64.1649 41.8434 60.2097 43.4798 56.7929 45.9598C53.3761 48.4398 50.5945 51.693 48.6754 55.4537C46.7564 59.2143 45.7544 63.3757 45.7512 67.5976C45.7512 81.018 55.6335 100.106 68.5207 103.488L70.5232 104.634L69.4358 108.363H75.8807L74.4803 104.628L76.4748 103.488C86.4314 100.875 94.5923 88.8872 97.7909 77.3791C99.5405 78.546 101.467 79.4228 103.496 79.9757L105.498 81.1214L104.411 84.8505H110.856L109.455 81.1161L111.45 79.9757C112.93 79.5774 114.355 78.9984 115.694 78.2517C117.415 91.1549 126.568 106.912 138.169 109.954L140.171 111.1L139.084 114.829H145.529L144.128 111.094L146.123 109.954C159.029 106.572 168.9 87.4842 168.9 74.0638Z" fill="url(#paint15_linear)"/>
</g>
<path d="M76.8966 106.994H70.6611L71.7512 103.252H75.4935L76.8966 106.994Z" fill="#F55F44"/>
<path d="M99.5044 67.55C99.5044 81.843 87.9167 102.785 73.6238 102.785C59.3308 102.785 47.7432 81.8324 47.7432 67.55C47.7432 60.6861 50.4699 54.1032 55.3234 49.2497C60.177 44.3961 66.7598 41.6694 73.6238 41.6694C80.4877 41.6694 87.0706 44.3961 91.9241 49.2497C96.7777 54.1032 99.5044 60.6861 99.5044 67.55Z" fill="#94BBF9"/>
<path d="M75.4935 103.408H71.7512L69.5684 102.162H77.6763L75.4935 103.408Z" fill="#535461"/>
<path opacity="0.1" d="M64.2692 47.438C64.2692 47.438 53.3553 53.3631 51.8037 65.208L64.2692 47.438Z" fill="white"/>
<path d="M110.742 84.2433H104.506L105.596 80.501H109.339L110.742 84.2433Z" fill="#4D8AF0"/>
<path d="M133.35 44.7964C133.35 59.0893 121.762 80.0315 107.469 80.0315C93.176 80.0315 81.583 59.092 81.583 44.7964C81.583 37.9324 84.3097 31.3496 89.1633 26.496C94.0168 21.6425 100.6 18.9158 107.464 18.9158C114.328 18.9158 120.91 21.6425 125.764 26.496C130.618 31.3496 133.344 37.9324 133.344 44.7964H133.35Z" fill="#6998E7"/>
<path d="M109.339 80.6574H105.597L103.414 79.4082H111.522L109.339 80.6574Z" fill="#535461"/>
<path opacity="0.1" d="M98.1145 24.6843C98.1145 24.6843 87.2005 30.6094 85.6489 42.4544L98.1145 24.6843Z" fill="white"/>
<path d="M144.303 113.251H138.065L139.158 109.511H142.898L144.303 113.251Z" fill="#3AD29F"/>
<path d="M166.911 73.8066C166.911 88.0996 155.323 109.042 141.031 109.042C126.738 109.042 115.15 88.089 115.15 73.8066C115.15 66.9427 117.877 60.3598 122.73 55.5063C127.584 50.6527 134.167 47.926 141.031 47.926C147.894 47.926 154.477 50.6527 159.331 55.5063C164.184 60.3598 166.911 66.9427 166.911 73.8066Z" fill="#3273DC"/>
<path d="M142.898 109.665H139.158L136.975 108.418H145.08L142.898 109.665Z" fill="#535461"/>
<path opacity="0.1" d="M131.673 53.6948C131.673 53.6948 120.759 59.6199 119.208 71.4649L131.673 53.6948Z" fill="white"/>
<path d="M149.896 152.494L78.3225 156.073L80.5219 200.06L152.095 196.482L149.896 152.494Z" fill="url(#paint16_linear)"/>
<path d="M148.344 153.221L79.2881 156.756L81.3865 197.753L150.443 194.219L148.344 153.221Z" fill="#EEEEEE"/>
<path d="M82.7589 166.235L91.5449 165.785L91.2121 159.283L82.4261 159.732L82.7589 166.235Z" fill="#3273DC"/>
<path d="M90.6124 178.519L124.35 176.792L124.242 174.684L90.5044 176.411L90.6124 178.519Z" fill="#3273DC"/>
<path d="M99.9802 182.62L124.582 181.361L124.51 179.955L99.9082 181.214L99.9802 182.62Z" fill="#3273DC"/>
</g>
<defs>
<linearGradient id="paint0_linear" x1="123.72" y1="140.615" x2="118.842" y2="124.252" gradientUnits="userSpaceOnUse">
<stop stop-color="#808080" stop-opacity="0.25"/>
<stop offset="0.54" stop-color="#808080" stop-opacity="0.12"/>
<stop offset="1" stop-color="#808080" stop-opacity="0.1"/>
</linearGradient>
<linearGradient id="paint1_linear" x1="1397.93" y1="9725.58" x2="1739.86" y2="7969.77" gradientUnits="userSpaceOnUse">
<stop stop-color="#808080" stop-opacity="0.25"/>
<stop offset="0.54" stop-color="#808080" stop-opacity="0.12"/>
<stop offset="1" stop-color="#808080" stop-opacity="0.1"/>
</linearGradient>
<linearGradient id="paint2_linear" x1="-9808.69" y1="8730.82" x2="-8167.64" y2="8018.97" gradientUnits="userSpaceOnUse">
<stop stop-color="#808080" stop-opacity="0.25"/>
<stop offset="0.54" stop-color="#808080" stop-opacity="0.12"/>
<stop offset="1" stop-color="#808080" stop-opacity="0.1"/>
</linearGradient>
<linearGradient id="paint3_linear" x1="1843.31" y1="4924.74" x2="1529.25" y2="3871.26" gradientUnits="userSpaceOnUse">
<stop stop-color="#808080" stop-opacity="0.25"/>
<stop offset="0.54" stop-color="#808080" stop-opacity="0.12"/>
<stop offset="1" stop-color="#808080" stop-opacity="0.1"/>
</linearGradient>
<linearGradient id="paint4_linear" x1="879.328" y1="1470.32" x2="1221.26" y2="-285.492" gradientUnits="userSpaceOnUse">
<stop stop-color="#808080" stop-opacity="0.25"/>
<stop offset="0.54" stop-color="#808080" stop-opacity="0.12"/>
<stop offset="1" stop-color="#808080" stop-opacity="0.1"/>
</linearGradient>
<linearGradient id="paint5_linear" x1="-10276.1" y1="3278.61" x2="-8635.01" y2="2566.76" gradientUnits="userSpaceOnUse">
<stop stop-color="#808080" stop-opacity="0.25"/>
<stop offset="0.54" stop-color="#808080" stop-opacity="0.12"/>
<stop offset="1" stop-color="#808080" stop-opacity="0.1"/>
</linearGradient>
<linearGradient id="paint6_linear" x1="-6327.23" y1="9887.71" x2="-6641.33" y2="8834.07" gradientUnits="userSpaceOnUse">
<stop stop-color="#808080" stop-opacity="0.25"/>
<stop offset="0.54" stop-color="#808080" stop-opacity="0.12"/>
<stop offset="1" stop-color="#808080" stop-opacity="0.1"/>
</linearGradient>
<linearGradient id="paint7_linear" x1="-4443.74" y1="8367.84" x2="-4101.81" y2="6612.03" gradientUnits="userSpaceOnUse">
<stop stop-color="#808080" stop-opacity="0.25"/>
<stop offset="0.54" stop-color="#808080" stop-opacity="0.12"/>
<stop offset="1" stop-color="#808080" stop-opacity="0.1"/>
</linearGradient>
<linearGradient id="paint8_linear" x1="-18552.4" y1="8761.58" x2="-16911.4" y2="8049.73" gradientUnits="userSpaceOnUse">
<stop stop-color="#808080" stop-opacity="0.25"/>
<stop offset="0.54" stop-color="#808080" stop-opacity="0.12"/>
<stop offset="1" stop-color="#808080" stop-opacity="0.1"/>
</linearGradient>
<linearGradient id="paint9_linear" x1="-5494.82" y1="6555.05" x2="-5808.88" y2="5501.56" gradientUnits="userSpaceOnUse">
<stop stop-color="#808080" stop-opacity="0.25"/>
<stop offset="0.54" stop-color="#808080" stop-opacity="0.12"/>
<stop offset="1" stop-color="#808080" stop-opacity="0.1"/>
</linearGradient>
<linearGradient id="paint10_linear" x1="-3858.07" y1="3329.55" x2="-3518.2" y2="1576.53" gradientUnits="userSpaceOnUse">
<stop stop-color="#808080" stop-opacity="0.25"/>
<stop offset="0.54" stop-color="#808080" stop-opacity="0.12"/>
<stop offset="1" stop-color="#808080" stop-opacity="0.1"/>
</linearGradient>
<linearGradient id="paint11_linear" x1="-17493.3" y1="5291.54" x2="-15852.3" y2="4579.69" gradientUnits="userSpaceOnUse">
<stop stop-color="#808080" stop-opacity="0.25"/>
<stop offset="0.54" stop-color="#808080" stop-opacity="0.12"/>
<stop offset="1" stop-color="#808080" stop-opacity="0.1"/>
</linearGradient>
<linearGradient id="paint12_linear" x1="11833.6" y1="29570" x2="14602.8" y2="29570" gradientUnits="userSpaceOnUse">
<stop stop-color="#808080" stop-opacity="0.25"/>
<stop offset="0.54" stop-color="#808080" stop-opacity="0.12"/>
<stop offset="1" stop-color="#808080" stop-opacity="0.1"/>
</linearGradient>
<linearGradient id="paint13_linear" x1="4509.46" y1="39256.2" x2="4763.53" y2="39256.2" gradientUnits="userSpaceOnUse">
<stop stop-color="#808080" stop-opacity="0.25"/>
<stop offset="0.54" stop-color="#808080" stop-opacity="0.12"/>
<stop offset="1" stop-color="#808080" stop-opacity="0.1"/>
</linearGradient>
<linearGradient id="paint14_linear" x1="5265.26" y1="27903.7" x2="5502.03" y2="27903.7" gradientUnits="userSpaceOnUse">
<stop stop-color="#808080" stop-opacity="0.25"/>
<stop offset="0.54" stop-color="#808080" stop-opacity="0.12"/>
<stop offset="1" stop-color="#808080" stop-opacity="0.1"/>
</linearGradient>
<linearGradient id="paint15_linear" x1="70371.2" y1="49484.8" x2="70371.2" y2="13592.2" gradientUnits="userSpaceOnUse">
<stop stop-color="#808080" stop-opacity="0.25"/>
<stop offset="0.54" stop-color="#808080" stop-opacity="0.12"/>
<stop offset="1" stop-color="#808080" stop-opacity="0.1"/>
</linearGradient>
<linearGradient id="paint16_linear" x1="352.045" y1="34755.4" x2="-12.721" y2="27460.1" gradientUnits="userSpaceOnUse">
<stop stop-color="#808080" stop-opacity="0.25"/>
<stop offset="0.54" stop-color="#808080" stop-opacity="0.12"/>
<stop offset="1" stop-color="#808080" stop-opacity="0.1"/>
</linearGradient>
<clipPath id="clip0">
<rect width="230" height="199.64" fill="white"/>
</clipPath>
</defs>
</svg>
