<svg width="250" height="190" viewBox="0 0 250 190" fill="none" xmlns="http://www.w3.org/2000/svg">
<g clip-path="url(#clip0)">
<path d="M134.495 189.501C184.822 189.501 225.62 177.844 225.62 163.465C225.62 149.086 184.822 137.429 134.495 137.429C84.1683 137.429 43.3702 149.086 43.3702 163.465C43.3702 177.844 84.1683 189.501 134.495 189.501Z" fill="#F5F5F5"/>
<path d="M221.194 62.1836C221.194 62.1836 205.052 78.3257 214.164 102.279C223.277 126.231 198.543 166.066 198.543 166.066C198.543 166.066 198.803 166.027 199.301 165.941C232.454 160.088 248.927 122.17 230.491 94.0018C223.647 83.5303 218.01 71.244 221.194 62.1836Z" fill="#3273DC"/>
<path d="M221.194 62.1836C221.194 62.1836 212.082 81.9707 221.194 98.1129C230.307 114.255 222.756 159.557 198.543 166.066" stroke="#535461" stroke-width="2" stroke-miterlimit="10"/>
<path d="M249.943 127.473C249.943 127.473 231.522 124.539 229.843 141.048C228.164 157.558 194.435 159.843 194.435 159.843C194.435 159.843 194.653 159.994 195.067 160.265C222.925 178.553 249.557 171.914 245.545 147.63C244.043 138.604 244.163 129.535 249.943 127.473Z" fill="#3273DC"/>
<path opacity="0.2" d="M249.943 127.473C249.943 127.473 231.522 124.539 229.843 141.048C228.164 157.558 194.435 159.843 194.435 159.843C194.435 159.843 194.653 159.994 195.067 160.265C222.925 178.553 249.557 171.914 245.545 147.63C244.043 138.604 244.163 129.535 249.943 127.473Z" fill="#F5F5F5"/>
<path d="M249.943 127.473C249.943 127.473 235.644 130.613 236.818 143.616C237.992 156.618 215.575 172.197 194.424 159.838" stroke="#535461" stroke-width="2" stroke-miterlimit="10"/>
<path opacity="0.2" d="M39.4179 0.0200336C37.3194 -0.0528664 35.1689 0.0200335 33.2006 0.75424C27.845 2.75118 25.3065 9.28354 26.1319 14.9411C26.9572 20.5987 30.3523 25.5116 33.8749 30.0132C37.3975 34.5147 41.2143 38.959 43.1462 44.3328C44.1095 47.0171 44.5599 50.0242 43.581 52.7033C42.0709 56.8352 37.5173 59.1445 33.1459 59.6236C28.7745 60.1026 24.3849 59.1679 19.9979 58.8425C18.1571 58.7123 16.2643 58.6967 14.5304 59.3007C12.6271 59.9594 11.0416 61.3029 9.58357 62.7036C3.89477 68.1971 -0.658872 75.6954 0.0779384 83.5686C0.911081 92.4937 8.34167 99.5493 16.4804 103.332C19.1751 104.587 22.026 105.603 24.3979 107.394C30.6465 112.117 32.0498 120.966 31.4275 128.78C30.8053 136.593 28.686 144.414 29.8654 152.16C31.2531 161.168 37.3949 169.304 45.6795 173.105C53.0606 176.49 62.2981 176.279 68.8512 171.491C72.0458 169.148 74.4619 165.917 76.563 162.566C79.7343 157.511 82.3074 152.104 84.2305 146.455C85.1444 143.771 86.0036 140.884 88.1359 139.017C89.4377 137.869 91.1248 137.226 92.7937 136.726C97.8238 135.221 103.122 134.807 108.199 133.469C113.276 132.13 118.384 129.636 121.144 125.176C125.049 118.847 123.227 110.752 123.245 103.306C123.276 86.3414 133.428 71.1522 137.174 54.6195C138.398 49.2145 138.853 43.2341 136.12 38.4149C134.261 35.1266 131.129 32.7834 127.835 30.9609C120.597 26.941 112.37 25.1523 104.275 23.4105C93.0254 20.9944 79.3645 20.682 70.6451 12.866C62.2772 5.36777 50.8293 0.0200336 39.4179 0.0200336Z" fill="#3273DC"/>
<g opacity="0.5">
<path opacity="0.5" d="M80.2265 65.6856C80.2259 61.5964 79.5855 57.5326 78.3285 53.6414L75.2042 43.9536C75.2042 43.7921 75.2042 43.6333 75.2042 43.4745C75.3005 37.265 70.4605 34.1667 68.5963 34.5026C66.6879 34.8463 61.3922 32.1906 61.3922 32.1906V32.2635C61.0292 31.8456 60.7017 31.3979 60.4133 30.9253C61.3283 30.2589 62.1008 29.4163 62.6855 28.4471C63.2702 27.4779 63.6552 26.4016 63.818 25.2814C63.9807 24.1613 63.9179 23.0199 63.6332 21.9243C63.3486 20.8288 62.8478 19.8012 62.1603 18.902C62.7327 18.4719 63.1692 17.8863 63.4178 17.2149C63.85 15.999 63.5194 14.6113 62.8164 13.5282C62.5175 13.0761 62.1681 12.6595 61.775 12.2863C61.1795 11.6964 60.5291 11.1646 59.8327 10.6982C58.0961 9.49531 56.1877 8.46169 54.1048 8.09459C53.7444 8.00949 53.3692 8.00949 53.0087 8.09459C52.6959 8.22082 52.3982 8.3815 52.1209 8.57365C50.6942 9.38596 48.9185 9.03448 47.2731 8.94856C45.6276 8.86264 43.6281 9.32347 43.1074 10.8674C42.9459 11.3438 42.9564 11.8593 42.847 12.3488C42.5867 13.5465 41.6624 14.4759 40.949 15.4731C40.2356 16.4703 39.7019 17.8163 40.2955 18.8994C40.4986 19.2639 40.8162 19.5998 40.8162 20.0163C40.8162 20.3157 40.6392 20.5839 40.5559 20.8703C40.3762 21.5212 40.7147 22.1721 41.2354 22.6433C41.4598 22.8852 41.724 23.0869 42.0165 23.2396C42.8418 23.6613 43.7921 23.7915 44.6331 24.182C45.0528 24.3792 45.4379 24.643 45.7734 24.9631C46.1844 25.3933 46.5056 25.901 46.7184 26.4567C46.9312 27.0123 47.0312 27.6047 47.0127 28.1994L47.1872 28.2176C47.1872 28.2697 47.1872 28.3191 47.1872 28.3712C47.3694 28.392 47.5621 28.4102 47.7521 28.4181C48.0255 28.8594 48.3384 29.2751 48.6868 29.66C48.6278 29.8821 48.561 30.1078 48.4863 30.3369C47.8745 30.7613 42.8704 34.0938 37.179 33.2919C31.1049 32.4354 27.6317 58.9918 27.6317 58.9918C27.4066 60.5105 27.2969 62.044 27.3037 63.5793C27.2777 67.4846 28.0978 72.5954 32.667 71.843L35.0962 71.0437V84.1787C35.0962 84.1787 35.4425 87.7768 34.2292 90.1669C33.0159 92.557 38.0486 91.7082 38.0486 91.7082C38.0486 91.7082 38.2413 91.9087 38.5954 92.2498L38.4834 92.5648L38.6318 92.7158C37.9699 94.9787 37.0774 97.1676 35.9684 99.2482L36.1116 99.3211C36.0205 99.4955 35.9684 99.5814 35.9684 99.5814C35.9684 99.5814 37.8377 100.537 40.4101 101.768C42.4773 108.756 47.0023 124.94 45.5131 128.023L45.5547 128.111C45.8333 128.689 47.3902 132.097 47.0752 135.219C46.7914 138.01 50.6551 150.692 52.0975 155.298L51.4154 155.436L53.8445 164.173L53.3238 169.828C53.3238 169.828 50.3739 177.709 57.3151 176.168C64.2562 174.627 62.3478 168.287 62.3478 168.287L62.5222 155.436C62.5222 155.436 61.8531 155.063 61.0277 154.707C60.4602 153.173 59.2235 149.549 59.2235 147.042C59.2235 143.787 56.9662 129.736 56.9662 129.736V129.707V129.653V129.637L56.9532 129.45V129.418C56.9532 129.244 56.9245 129.004 56.9037 128.713V128.697C56.6433 124.899 55.8623 111.993 56.4324 105.265C56.9339 104.923 57.4555 104.612 57.9946 104.333C59.6843 108.603 64.0401 120.139 63.7615 124.979C63.4152 130.967 63.6756 126.265 63.7615 125.5C63.7875 125.263 63.8058 125.549 63.8136 126.193C63.8136 126.31 63.8136 126.44 63.8136 126.578C63.8136 126.716 63.8136 126.869 63.8136 127.028C63.8136 127.187 63.8136 127.359 63.8136 127.549C63.8136 127.639 63.8136 127.731 63.8136 127.825C63.8136 128.012 63.8136 128.209 63.8136 128.413C63.8136 128.516 63.8136 128.62 63.8136 128.726C63.8136 129.247 63.8136 129.825 63.7953 130.426C63.7953 130.546 63.7953 130.667 63.7953 130.79C63.7953 131.158 63.7953 131.532 63.7771 131.913C63.7771 132.433 63.7563 132.938 63.7459 133.462C63.7198 134.633 63.686 135.818 63.6443 136.927C63.6443 137.05 63.64 137.173 63.6313 137.294C63.6226 137.537 63.6131 137.775 63.6027 138.008C63.5923 138.24 63.5819 138.467 63.5714 138.69C63.561 138.91 63.5497 139.124 63.5376 139.333C63.5246 139.577 63.5089 139.812 63.4959 140.036L62.5534 139.9L62.353 142.066C62.0372 145.506 62.4816 148.972 63.6547 152.22C63.9776 153.111 64.2275 153.848 64.2822 154.111C64.4566 154.967 64.2822 161.14 64.2822 161.14C64.2822 161.14 65.3236 169.193 70.1845 167.649C72.3715 166.954 73.4338 164.84 73.9415 162.721C74.5048 160.264 74.2947 157.693 73.34 155.36C72.6501 153.626 71.9445 151.195 72.4418 149.315C73.3088 146.06 73.3088 141.434 73.3088 141.434L72.7725 141.358C72.9061 141.104 73.0269 140.844 73.1343 140.577C73.1343 140.577 72.9599 128.754 74.5221 127.213C75.3812 126.364 75.3031 124.326 75.0428 122.659C74.6708 120.248 74.5835 117.801 74.7824 115.369C74.8892 114.117 75.0428 113.026 75.2224 112.638C75.6806 111.732 76.1389 102.599 74.1107 98.2041L74.5273 98.074L74.4622 97.7511L74.5273 97.7303C74.8332 98.5469 75.1808 99.3472 75.5687 100.128C75.6712 100.209 75.789 100.267 75.915 100.3C81.5361 99.3133 81.7626 94.0671 81.4502 91.2031C81.6871 91.3177 81.8173 91.3906 81.8173 91.3906L82.338 83.8403C82.8717 82.6348 83.0696 81.0961 83.0566 79.4324C83.08 73.4859 80.2265 65.6856 80.2265 65.6856ZM74.03 87.1468C73.6446 83.8585 73.1109 80.7628 73.1109 80.7628L70.5073 71.5097V68.1407L74.6366 83.5539L74.03 87.1468Z" fill="url(#paint0_linear)"/>
</g>
<path d="M62.3243 137.69L62.1316 139.806C61.8276 143.17 62.2584 146.559 63.3943 149.739C63.7041 150.611 63.9463 151.33 63.9983 151.588C64.165 152.426 63.9983 158.453 63.9983 158.453C63.9983 158.453 65.0033 166.324 69.6923 164.816C71.8012 164.139 72.8166 162.069 73.3165 160C73.8585 157.599 73.655 155.09 72.7333 152.809C72.0668 151.114 71.3847 148.731 71.8663 146.901C72.7047 143.72 72.7047 139.2 72.7047 139.2L62.3243 137.69Z" fill="#5A5773"/>
<path d="M57.302 101.354C57.302 101.354 63.8318 117.262 63.4959 123.12C63.16 128.978 63.4126 124.375 63.4959 123.623C63.6443 122.282 63.4959 138.203 62.9934 140.025C62.9934 140.025 69.859 145.047 72.5381 138.351C72.5381 138.351 72.3715 126.799 73.8763 125.292C74.7043 124.464 74.6236 122.469 74.3788 120.842C74.0176 118.488 73.9302 116.1 74.1185 113.726C74.22 112.503 74.3606 111.425 74.5429 111.058C75.0453 110.053 75.5478 98.6674 72.5329 95.4858L57.302 101.354Z" fill="#605D82"/>
<path opacity="0.1" d="M63.8317 140.033C64.3342 138.192 64.4826 122.282 64.3342 123.63C64.2509 124.383 63.9983 128.989 64.3342 123.128C64.6701 117.267 58.1403 101.362 58.1403 101.362L72.7489 95.7436C72.6813 95.6577 72.611 95.577 72.5407 95.5015L57.3046 101.362C57.3046 101.362 63.8343 117.27 63.4985 123.128C63.1626 128.986 63.4151 124.383 63.4985 123.63C63.6469 122.29 63.4985 138.21 62.996 140.033C62.996 140.033 65.7375 142.038 68.4322 141.824C66.0343 141.645 63.8317 140.033 63.8317 140.033Z" fill="black"/>
<path d="M51.608 152.926L53.9512 161.466L53.4488 166.99C53.4488 166.99 50.6031 174.692 57.2994 173.184C63.9958 171.677 62.1551 165.483 62.1551 165.483L62.3217 152.926C62.3217 152.926 59.6426 151.418 58.471 151.588C57.2994 151.757 51.608 152.926 51.608 152.926Z" fill="#5A5773"/>
<path d="M40.0559 97.3372C40.0559 97.3372 47.7573 122.285 45.9165 126.135C45.9165 126.135 47.7573 129.819 47.424 133.165C47.0908 136.51 52.7822 154.428 52.7822 154.428L61.1552 152.921C61.1552 152.921 59.1453 147.898 59.1453 144.717C59.1453 141.535 56.9687 127.794 56.9687 127.794C56.9687 127.794 55.128 102.677 57.3046 99.998L40.0559 97.3372Z" fill="#605D82"/>
<g opacity="0.1">
<path opacity="0.1" d="M56.6536 102.039C55.2659 107.726 56.7994 128.65 56.7994 128.65C56.7994 128.65 58.976 142.379 58.976 145.574C58.976 148.003 60.145 151.502 60.6996 153.022L61.1526 152.942C61.1526 152.942 59.1426 147.919 59.1426 144.738C59.1426 141.556 56.966 127.815 56.966 127.815C56.966 127.815 55.5653 108.691 56.6536 102.039Z" fill="black"/>
<path opacity="0.1" d="M45.9165 126.135L45.9582 126.221C45.9712 126.135 45.9842 126.044 45.992 125.961C45.9698 126.02 45.9446 126.078 45.9165 126.135Z" fill="black"/>
<path opacity="0.1" d="M56.9244 100.821C57.0005 100.532 57.1284 100.259 57.3019 100.016L40.0559 97.3372C40.0559 97.3372 40.1574 97.6626 40.3319 98.2432L56.9244 100.821Z" fill="black"/>
</g>
<path d="M80.2394 88.2948C80.2394 88.2948 82.7519 97.6676 75.2171 99.0111C75.0949 98.9793 74.9805 98.9225 74.8813 98.8444C74.8813 98.8444 70.5281 90.3047 73.8763 86.9565L80.2394 88.2948Z" fill="#A1616A"/>
<path d="M49.4314 26.0149C49.4314 26.0149 49.9339 33.0445 44.4091 36.3953C38.8844 39.7461 56.1252 48.9524 56.1252 48.9524L65.1674 34.552C65.1674 34.552 61.3193 35.0493 58.9761 28.3581L49.4314 26.0149Z" fill="#A1616A"/>
<path opacity="0.1" d="M45.7473 36.8926C45.7473 36.8926 54.287 54.6411 61.9884 37.8976L73.8763 96.832C73.8763 96.832 55.456 102.526 55.292 105.205C55.128 107.884 36.7103 98.342 36.7103 98.342C36.7103 98.342 40.7276 90.9739 39.7253 86.4542C38.7229 81.9344 45.7473 36.8926 45.7473 36.8926Z" fill="black"/>
<path d="M45.7473 36.5566C45.7473 36.5566 54.287 54.3052 61.9884 37.5616L73.8763 96.4986C73.8763 96.4986 55.456 102.193 55.292 104.872C55.128 107.551 36.7103 98.0061 36.7103 98.0061C36.7103 98.0061 40.7276 90.638 39.7253 86.1182C38.7229 81.5984 45.7473 36.5566 45.7473 36.5566Z" fill="#E1E7EF"/>
<path d="M54.1204 157.615C54.1204 157.615 51.9438 152.759 56.9661 152.759C61.9884 152.759 61.1526 157.112 61.1526 157.112L54.1204 157.615Z" fill="#5A5773"/>
<path d="M65.5058 145.055C65.5058 145.055 63.4958 139.864 68.5207 139.697C73.5456 139.53 71.0332 144.383 71.0332 144.383L65.5058 145.055Z" fill="#5A5773"/>
<path opacity="0.1" d="M61.236 32.7842C61.236 32.7842 66.3416 35.3877 68.1849 35.0441C70.0282 34.7004 74.8813 37.8898 74.548 44.2529L77.5734 53.7455C78.7836 57.5518 79.3983 61.5222 79.3959 65.5163C79.3959 65.5163 83.749 77.5708 81.4058 82.929L80.9033 90.2971C80.9033 90.2971 77.0526 88.1205 73.0327 88.7896L74.0455 82.7727L69.5153 65.6907L61.9806 47.4397L61.236 32.7842Z" fill="black"/>
<path d="M61.236 32.4536C61.236 32.4536 66.3416 35.0572 68.1849 34.7135C70.0282 34.3698 74.8813 37.5592 74.548 43.9223L77.5734 53.415C78.7836 57.2212 79.3983 61.1917 79.3959 65.1857C79.3959 65.1857 83.749 77.2402 81.4058 82.5984L80.9033 89.9665C80.9033 89.9665 77.0526 87.7899 73.0327 88.459L74.0377 82.4317L69.5153 65.3549L61.9884 47.1039L61.236 32.4536Z" fill="#67647E"/>
<path opacity="0.1" d="M69.6924 52.7977V71.7179L72.2048 80.7601C72.2048 80.7601 73.8789 90.638 73.3764 93.653C72.8739 96.6679 64.8367 97.337 62.6601 94.8246C60.4835 92.3121 61.6551 70.8717 61.6551 70.8717L61.236 39.4857L61.5718 38.4807L69.6924 52.7977Z" fill="black"/>
<path d="M70.036 51.962V70.8821L72.5484 79.9243C72.5484 79.9243 74.2225 89.8023 73.72 92.8172C73.2175 95.8321 65.1803 96.5013 63.0037 93.9888C60.8272 91.4764 61.9988 70.0359 61.9988 70.0359L61.5796 38.6421L70.036 51.962Z" fill="#67647E"/>
<path opacity="0.1" d="M36.2886 67.7007L41.6467 84.3635L39.1343 91.4791C39.1343 91.4791 51.0222 104.036 58.5569 98.0089C58.5569 98.0089 59.3953 72.3897 57.7186 66.3625C56.0419 60.3352 48.0072 40.0664 48.0072 40.0664L46.3436 34.7161L37.4706 39.7384L36.2886 67.7007Z" fill="black"/>
<path d="M35.8694 66.8623V83.2648C35.8694 83.2648 36.2053 86.7822 35.0311 89.1254C33.8569 91.4687 38.7152 90.6329 38.7152 90.6329C38.7152 90.6329 50.603 103.19 58.1378 97.1627C58.1378 97.1627 58.9761 71.5435 57.2994 65.5163C55.6227 59.489 47.5881 39.2202 47.5881 39.2202L45.914 33.8621L37.0411 38.8843L35.8694 66.8623Z" fill="#67647E"/>
<path opacity="0.1" d="M48.8455 30.9487C48.8455 30.9487 43.7399 34.7161 37.8793 33.8777C32.0187 33.0394 28.6705 58.9944 28.6705 58.9944C28.6705 58.9944 26.4939 72.3898 33.5261 71.2181L49.0981 66.0266C49.0981 66.0266 45.7499 62.5092 46.2524 57.9894L38.7151 61.0017L39.0535 46.604L48.8455 30.9487Z" fill="black"/>
<path opacity="0.1" d="M29.0037 58.6585C29.0037 58.6585 26.8272 72.0539 33.8594 70.8823L49.4313 65.6908C49.4313 65.6908 46.0832 62.176 46.5856 57.6536L39.0535 60.6685L29.0037 58.6585Z" fill="black"/>
<path d="M46.2159 59.4186C46.2159 59.4186 51.4413 52.5478 55.2894 55.8465C59.1375 59.1452 47.5958 65.1907 47.5958 65.1907L46.2159 59.4186Z" fill="#A1616A"/>
<path d="M48.8455 30.6128C48.8455 30.6128 43.7399 34.3802 37.8793 33.5418C32.0187 32.7035 28.6705 58.6584 28.6705 58.6584C28.6705 58.6584 26.4939 72.0538 33.5261 70.8822L49.0981 65.6907C49.0981 65.6907 45.7499 62.1733 46.2524 57.6535L38.7151 60.6684L39.0535 46.2681L47.5932 39.2384L48.8455 30.6128Z" fill="#67647E"/>
<path opacity="0.1" d="M59.1428 28.6862L49.5981 26.343C49.5981 26.343 50.0954 26.9054 49.5148 29.1054C51.0509 30.868 52.9385 33.2086 55.4587 33.2086C57.2623 33.212 59.0182 32.63 60.4628 31.5502C59.9237 30.6444 59.4813 29.6845 59.1428 28.6862Z" fill="black"/>
<path d="M55.292 32.8753C59.9164 32.8753 63.6651 29.1266 63.6651 24.5022C63.6651 19.8779 59.9164 16.1292 55.292 16.1292C50.6677 16.1292 46.9189 19.8779 46.9189 24.5022C46.9189 29.1266 50.6677 32.8753 55.292 32.8753Z" fill="#A1616A"/>
<path opacity="0.1" d="M58.4658 20.8675C60.408 20.5369 62.5429 19.6751 63.1938 17.8162C63.6104 16.6263 63.2928 15.2725 62.6132 14.2128C61.9337 13.1532 60.9339 12.3382 59.9029 11.6092C58.2288 10.4324 56.3829 9.42225 54.3677 9.06816C54.0203 8.98509 53.6581 8.98509 53.3107 9.06816C53.0085 9.19184 52.7212 9.34904 52.4541 9.5368C51.0768 10.3309 49.3637 9.98722 47.7677 9.90391C46.1717 9.82059 44.2581 10.271 43.7556 11.7785C43.5994 12.2445 43.6098 12.747 43.4952 13.2261C43.2349 14.3977 42.3523 15.3089 41.6727 16.2853C40.9932 17.2616 40.4699 18.5816 41.0427 19.6335C41.2379 19.9901 41.5634 20.3182 41.5634 20.7243C41.5131 21.013 41.4256 21.294 41.303 21.5601C41.0661 22.4245 41.756 23.2967 42.5527 23.708C43.3494 24.1194 44.2659 24.247 45.0782 24.6297C45.8385 25.0049 46.4751 25.5905 46.9121 26.317C47.3492 27.0435 47.5685 27.8802 47.5438 28.7277C48.2832 28.8136 49.145 28.8579 49.6449 28.3059C49.8688 28.0586 49.9781 27.728 50.1812 27.465C50.4415 27.1213 50.8477 26.9182 51.181 26.6423C52.9332 25.2025 51.6887 23.2134 52.6806 21.6616C53.2013 20.8623 54.0293 21.1071 54.8676 21.1201C56.0722 21.1483 57.2769 21.0637 58.4658 20.8675Z" fill="black"/>
<path d="M58.2991 20.701C60.2414 20.3704 62.3763 19.5086 63.0272 17.6497C63.4438 16.4598 63.1261 15.106 62.4466 14.0463C61.7671 12.9867 60.7673 12.1717 59.7363 11.4427C58.0622 10.2659 56.2163 9.25574 54.2011 8.90166C53.8537 8.81859 53.4915 8.81859 53.1441 8.90166C52.8419 9.02534 52.5546 9.18253 52.2875 9.3703C50.9102 10.1644 49.197 9.82072 47.6011 9.73741C46.0051 9.65409 44.0915 10.1045 43.589 11.612C43.4327 12.078 43.4432 12.5805 43.3286 13.0596C43.0682 14.2312 42.1856 15.1424 41.5061 16.1188C40.8266 17.0951 40.3033 18.4151 40.876 19.4669C41.0713 19.8236 41.3968 20.1517 41.3968 20.5578C41.3465 20.8465 41.259 21.1275 41.1364 21.3936C40.8995 22.258 41.5894 23.1302 42.3861 23.5415C43.1828 23.9529 44.0993 24.0805 44.9116 24.4632C45.675 24.838 46.3143 25.4248 46.7529 26.1534C47.1915 26.882 47.411 27.7216 47.385 28.5716C48.1244 28.6576 48.9862 28.7018 49.486 28.1499C49.71 27.9025 49.8193 27.5719 50.0224 27.3089C50.2827 26.9652 50.6889 26.7621 51.0222 26.4862C52.7744 25.0464 51.5299 23.0573 52.5218 21.5055C53.0425 20.7062 53.8705 20.951 54.7088 20.964C55.9112 20.9883 57.1131 20.9002 58.2991 20.701Z" fill="#4A4347"/>
<path opacity="0.1" d="M68.4348 48.8638C68.4348 48.8638 70.2755 58.4085 69.4398 62.0925C68.9292 64.2357 69.0047 66.4767 69.6585 68.5806" fill="black"/>
<path opacity="0.1" d="M38.6787 52.8811C38.6787 52.8811 37.8768 59.2442 39.2124 60.5825L38.6787 52.8811Z" fill="black"/>
<path d="M85.4311 131.298C85.5346 131.298 85.634 131.257 85.7072 131.184C85.7804 131.111 85.8216 131.011 85.8216 130.908C85.8216 130.804 85.7804 130.705 85.7072 130.631C85.634 130.558 85.5346 130.517 85.4311 130.517C85.3275 130.517 85.2281 130.558 85.1549 130.631C85.0817 130.705 85.0405 130.804 85.0405 130.908C85.0405 131.011 85.0817 131.111 85.1549 131.184C85.2281 131.257 85.3275 131.298 85.4311 131.298Z" fill="black"/>
<g opacity="0.5">
<path opacity="0.5" d="M205.682 85.8007V85.5846L134.646 30.9617C134.601 30.9286 134.547 30.9106 134.491 30.9106C134.436 30.9106 134.381 30.9286 134.336 30.9617L63.298 85.5846V170.253H63.4334V170.388H205.82V85.72L205.682 85.8007Z" fill="url(#paint1_linear)"/>
</g>
<path d="M203.229 167.891H65.761V86.1391L134.495 33.2866L203.229 86.1391V167.891Z" fill="white"/>
<path d="M198.283 163.046H70.7078V87.1781L134.495 38.1294L198.283 87.1781V163.046Z" fill="#E0E0E0"/>
<path d="M156.135 36.9956L78.3147 57.397L104.262 156.373L182.083 135.971L156.135 36.9956Z" fill="#3273DC"/>
<path d="M175.111 52.0325H94.6606V154.353H175.111V52.0325Z" fill="#F5F5F5"/>
<path opacity="0.05" d="M66.4119 86.2693L135.146 127.145L66.4119 168.021V86.2693Z" fill="black"/>
<path d="M65.8911 86.2693L134.625 127.145L65.8911 168.021V86.2693Z" fill="white"/>
<path opacity="0.05" d="M202.839 86.2693L134.105 127.145L202.839 168.021V86.2693Z" fill="black"/>
<path d="M203.36 86.2693L134.625 127.145L203.36 168.021V86.2693Z" fill="white"/>
<path opacity="0.05" d="M65.8911 166.72L134.625 113.086L203.36 166.72H65.8911Z" fill="black"/>
<path d="M65.8911 168.021L134.625 114.388L203.36 168.021H65.8911Z" fill="white"/>
<path d="M79.8594 174.231C79.8594 174.231 76.4071 162.515 80.5077 153.887C82.25 150.28 82.7753 146.205 82.0047 142.275C81.6247 140.412 81.0748 138.588 80.3619 136.825" stroke="#535461" stroke-width="2" stroke-miterlimit="10"/>
<path d="M82.9108 131.374C82.9108 132.811 80.3072 136.974 80.3072 136.974C80.3072 136.974 77.7036 132.808 77.7036 131.374C77.7036 130.683 77.9779 130.021 78.4662 129.533C78.9544 129.044 79.6167 128.77 80.3072 128.77C80.9977 128.77 81.6599 129.044 82.1482 129.533C82.6364 130.021 82.9108 130.683 82.9108 131.374Z" fill="#3273DC"/>
<path d="M87.2196 139.33C86.4386 140.535 81.9917 142.618 81.9917 142.618C81.9917 142.618 82.0724 137.708 82.8535 136.503C83.2429 135.957 83.8275 135.583 84.4857 135.458C85.1439 135.333 85.825 135.466 86.3874 135.83C86.9498 136.195 87.3501 136.762 87.5051 137.413C87.6601 138.065 87.5579 138.752 87.2196 139.33Z" fill="#3273DC"/>
<path d="M87.0217 152.923C85.7381 153.569 80.8486 153.124 80.8486 153.124C80.8486 153.124 83.3975 148.927 84.6785 148.281C84.9851 148.11 85.3232 148.002 85.6725 147.965C86.0218 147.927 86.3751 147.961 86.711 148.063C87.0469 148.166 87.3586 148.336 87.6273 148.562C87.8959 148.789 88.116 149.067 88.2742 149.381C88.4325 149.694 88.5256 150.037 88.548 150.387C88.5704 150.738 88.5216 151.089 88.4046 151.421C88.2876 151.752 88.1047 152.056 87.8671 152.315C87.6294 152.573 87.3418 152.781 87.0217 152.926V152.923Z" fill="#3273DC"/>
<path d="M84.5639 163.179C83.4079 164.033 78.5132 164.418 78.5132 164.418C78.5132 164.418 80.3149 159.851 81.4708 158.997C82.0271 158.626 82.7047 158.483 83.3634 158.598C84.0221 158.713 84.6113 159.077 85.0089 159.615C85.4066 160.152 85.5821 160.822 85.4993 161.486C85.4164 162.149 85.0815 162.755 84.5639 163.179Z" fill="#3273DC"/>
<path d="M76.5215 142.894C77.563 143.894 82.3509 144.933 82.3509 144.933C82.3509 144.933 81.1767 140.166 80.1457 139.166C79.6442 138.723 78.9913 138.49 78.3224 138.515C77.6536 138.541 77.0203 138.823 76.5539 139.303C76.0876 139.783 75.824 140.424 75.818 141.093C75.8119 141.763 76.0639 142.408 76.5215 142.897V142.894Z" fill="#3273DC"/>
<path d="M73.7982 154.925C75.0817 155.571 79.9713 155.126 79.9713 155.126C79.9713 155.126 77.4224 150.929 76.1414 150.283C75.5297 150.007 74.835 149.977 74.2021 150.201C73.5693 150.425 73.0472 150.884 72.7449 151.483C72.4426 152.082 72.3834 152.775 72.5796 153.417C72.7759 154.059 73.2124 154.6 73.7982 154.928V154.925Z" fill="#3273DC"/>
<path d="M72.7568 166.98C73.9128 167.834 78.8075 168.219 78.8075 168.219C78.8075 168.219 77.0058 163.653 75.8498 162.799C75.5769 162.576 75.2615 162.41 74.9227 162.313C74.584 162.215 74.2289 162.187 73.8791 162.231C73.5293 162.274 73.192 162.389 72.8876 162.567C72.5833 162.745 72.3182 162.982 72.1086 163.266C71.8989 163.549 71.749 163.872 71.6679 164.215C71.5869 164.559 71.5763 164.915 71.6369 165.262C71.6975 165.609 71.828 165.941 72.0205 166.236C72.213 166.531 72.4635 166.784 72.7568 166.98Z" fill="#3273DC"/>
<path opacity="0.5" d="M131.631 56.7188H99.3469V59.3223H131.631V56.7188Z" fill="#3273DC"/>
<path opacity="0.5" d="M169.123 67.1331H99.3469V69.7366H169.123V67.1331Z" fill="#3273DC"/>
<path opacity="0.5" d="M169.123 73.9023H99.3469V76.5059H169.123V73.9023Z" fill="#3273DC"/>
<path opacity="0.4" d="M169.123 80.6716H99.3469V83.2752H169.123V80.6716Z" fill="#3273DC"/>
<path opacity="0.4" d="M169.123 87.4409H99.3469V90.0445H169.123V87.4409Z" fill="#3273DC"/>
<path opacity="0.3" d="M139.182 94.2102H99.3469V96.8138H139.182V94.2102Z" fill="#3273DC"/>
<path opacity="0.3" d="M153.762 100.979H99.3469V103.583H153.762V100.979Z" fill="#3273DC"/>
</g>
<defs>
<linearGradient id="paint0_linear" x1="27.3063" y1="92.2133" x2="83.0279" y2="92.2133" gradientUnits="userSpaceOnUse">
<stop stop-color="#808080" stop-opacity="0.25"/>
<stop offset="0.54" stop-color="#808080" stop-opacity="0.12"/>
<stop offset="1" stop-color="#808080" stop-opacity="0.1"/>
</linearGradient>
<linearGradient id="paint1_linear" x1="90825.6" y1="103321" x2="90825.6" y2="28595.9" gradientUnits="userSpaceOnUse">
<stop stop-color="#808080" stop-opacity="0.25"/>
<stop offset="0.54" stop-color="#808080" stop-opacity="0.12"/>
<stop offset="1" stop-color="#808080" stop-opacity="0.1"/>
</linearGradient>
<clipPath id="clip0">
<rect width="250" height="189.501" fill="white"/>
</clipPath>
</defs>
</svg>
