<svg width="97" height="27" viewBox="0 0 97 27" fill="none" xmlns="http://www.w3.org/2000/svg">
<path d="M8.8252 26.293C5.34863 26.293 3.05371 25.1992 1.94043 23.0117C1.28613 21.7422 0.900391 20.0479 0.783203 17.9287C0.734375 16.9326 0.709961 15.8486 0.709961 14.6768C0.709961 13.5049 0.744141 12.3965 0.8125 11.3516C0.880859 10.2969 1.0127 9.34473 1.20801 8.49512C1.41309 7.64551 1.69629 6.89844 2.05762 6.25391C2.42871 5.59961 2.91211 5.05273 3.50781 4.61328C4.73828 3.73438 6.51074 3.29492 8.8252 3.29492H9.7334C13.3564 3.29492 15.6758 4.27148 16.6914 6.22461C17.3262 7.44531 17.6826 9.14453 17.7607 11.3223C17.7998 12.3867 17.8193 13.5146 17.8193 14.7061C17.8193 15.8877 17.79 16.9814 17.7314 17.9873C17.6729 18.9834 17.5508 19.9062 17.3652 20.7559C17.1797 21.6055 16.9062 22.3721 16.5449 23.0557C16.1934 23.7393 15.7148 24.3203 15.1094 24.7988C13.8594 25.7949 12.0674 26.293 9.7334 26.293H8.8252ZM9.7041 24.1836C10.7783 24.1836 11.667 24.0664 12.3701 23.832C13.083 23.5977 13.6445 23.1875 14.0547 22.6016C14.8164 21.5176 15.1973 19.4375 15.1973 16.3613V14.7793C15.1973 13.3047 15.1582 11.9912 15.0801 10.8389C15.002 9.68652 14.792 8.71484 14.4502 7.92383C13.7471 6.2832 12.2236 5.46289 9.87988 5.46289H8.64941C6.2666 5.46289 4.74316 6.22949 4.0791 7.7627C3.65918 8.73926 3.42969 9.8916 3.39062 11.2197C3.35156 12.5479 3.33203 13.7344 3.33203 14.7793V16.3613C3.33203 19.2422 3.76172 21.2734 4.62109 22.4551C5.45117 23.6074 6.85254 24.1836 8.8252 24.1836H9.7041ZM25.7734 3.58789H29.5967L34.6943 20.1406L35.5586 23.7148L36.3936 20.126L41.3154 3.58789H44.9629L48.5811 26H46.0908L43.3662 9.06641L42.9561 5.11133L42.0625 9.0957L37.0088 25.9854H34.123L28.8496 9.00781L27.8096 5.11133L27.3115 9.03711L24.8359 26H22.3164L25.7734 3.58789ZM82.7412 22.4697C84.958 23.6416 87.126 24.2275 89.2451 24.2275C91.7061 24.2275 93.1465 23.4414 93.5664 21.8691C93.7031 21.3516 93.7715 20.7559 93.7715 20.082V19.5107C93.7715 18.8271 93.7227 18.2754 93.625 17.8555C93.5273 17.4355 93.3223 17.0938 93.0098 16.8301C92.502 16.3906 91.3008 16.0244 89.4062 15.7314C87.7168 15.4678 86.5498 15.2188 85.9053 14.9844C85.2607 14.75 84.7285 14.4961 84.3086 14.2227C83.8984 13.9395 83.5469 13.5879 83.2539 13.168C82.6484 12.2891 82.3457 11.0732 82.3457 9.52051V9.37402C82.3457 6.15137 83.6836 4.22266 86.3594 3.58789C87.209 3.39258 88.1709 3.29492 89.2451 3.29492H89.4355C91.9453 3.29492 93.9961 3.65625 95.5879 4.37891L94.8262 6.62012C92.9023 5.79004 91.1299 5.375 89.5088 5.375H89.377C87.5898 5.375 86.3594 5.71191 85.6855 6.38574C85.1191 6.95215 84.8359 7.93359 84.8359 9.33008V9.38867C84.8359 10.9805 85.2754 12.0254 86.1543 12.5234C86.75 12.8457 87.8145 13.1289 89.3477 13.373C90.8906 13.6172 92.0381 13.8271 92.79 14.0029C93.542 14.1689 94.1816 14.4473 94.709 14.8379C95.8027 15.6582 96.3496 17.2158 96.3496 19.5107V19.7012C96.3496 23.207 94.9385 25.2969 92.1162 25.9707C91.2471 26.1855 90.4268 26.293 89.6553 26.293C88.8838 26.293 88.1807 26.2637 87.5459 26.2051C86.9209 26.1562 86.2812 26.0635 85.627 25.9268C84.0938 25.6143 82.8096 25.1455 81.7744 24.5205L82.7412 22.4697Z" fill="black"/>
<path d="M62.043 10.5605C60.1387 10.5605 58.2002 11.1221 56.2275 12.2451V26H53.7959V8.56836H55.9346L56.1689 10.3701C57.2334 9.50098 58.5566 8.88086 60.1387 8.50977C60.7832 8.35352 61.54 8.27539 62.4092 8.27539C63.2783 8.27539 64.0449 8.37793 64.709 8.58301C65.373 8.77832 65.9004 9.0957 66.291 9.53516C67.0039 10.3262 67.3604 11.7666 67.3604 13.8564V26H64.8994V14.3105C64.8994 12.9043 64.7627 12.001 64.4893 11.6006C64.2158 11.1904 63.8887 10.917 63.5078 10.7803C63.1367 10.6338 62.6484 10.5605 62.043 10.5605ZM75.5195 4.39355C74.8652 4.39355 74.4453 4.30078 74.2598 4.11523C73.9668 3.8125 73.8203 3.39746 73.8203 2.87012C73.8203 2.33301 73.8496 1.95215 73.9082 1.72754C73.9766 1.49316 74.0742 1.3125 74.2012 1.18555C74.4355 0.951172 74.792 0.833984 75.2705 0.833984C75.7588 0.833984 76.1055 0.858398 76.3105 0.907227C76.5254 0.956055 76.7012 1.04883 76.8379 1.18555C77.0723 1.41992 77.1895 1.80566 77.1895 2.34277C77.1895 2.87012 77.1602 3.25098 77.1016 3.48535C77.0527 3.70996 76.9648 3.89063 76.8379 4.02734C76.5938 4.27148 76.1543 4.39355 75.5195 4.39355ZM74.333 8.56836H76.7354V26H74.3623L74.333 8.56836Z" fill="#3273DC"/>
</svg>
