<svg width="407" height="91" viewBox="0 0 407 91" fill="none" xmlns="http://www.w3.org/2000/svg">
<path d="M106.985 74.0001H112.498V61.4763H114.413C116.926 61.4763 117.869 62.3334 117.869 65.0715V70.4049C117.869 72.8096 118.069 73.262 118.383 74.0001H123.983C123.44 72.9287 123.383 71.881 123.383 70.4525V65.3096C123.383 62.0001 122.497 59.8334 119.726 59.1191V59.0477C122.183 58.2144 123.354 56.2858 123.354 53.262V51.4763C123.354 46.9525 120.869 44.7382 115.155 44.7382H106.985V74.0001ZM112.498 57.2858V48.9287H115.012C116.955 48.9287 117.812 49.8334 117.812 51.9287V54.1906C117.812 56.5239 116.555 57.2858 114.498 57.2858H112.498ZM135.181 74.4287C140.609 74.4287 143.551 71.762 143.551 67.0715V51.6906C143.551 47.0001 140.609 44.3096 135.181 44.3096C129.753 44.3096 126.811 47.0001 126.811 51.6906V67.0715C126.811 71.762 129.753 74.4287 135.181 74.4287ZM135.181 70.2382C133.438 70.2382 132.324 69.4525 132.324 67.3572V51.381C132.324 49.2858 133.438 48.5001 135.181 48.5001C136.952 48.5001 138.038 49.2858 138.038 51.381V67.3572C138.038 69.4525 136.952 70.2382 135.181 70.2382ZM147.265 74.0001H155.692C161.235 74.0001 163.948 71.4525 163.948 66.7858V51.9763C163.948 47.2858 161.235 44.7382 155.692 44.7382H147.265V74.0001ZM152.807 69.8334V48.9287H155.607C157.349 48.9287 158.406 49.6667 158.406 51.762V66.9763C158.406 69.0715 157.349 69.8334 155.607 69.8334H152.807ZM167.634 74.0001H173.176V64.6906L175.375 60.9525L180.032 74.0001H185.802L179.146 55.4763L185.717 44.7382H180.203L173.176 57.0715V44.7382H167.634V74.0001ZM188.431 74.0001H193.944V44.7382H188.431V74.0001ZM221.026 74.0001H237.195V69.8334H226.968L237.195 48.8334V44.7382H221.54V48.9287H231.282L221.026 69.9049V74.0001ZM245.366 74.0001H250.879V61.5477L257.564 44.7382H252.193L248.422 55.4763H248.337L244.566 44.7382H238.709L245.366 61.5477V74.0001ZM266.448 74.4287C271.876 74.4287 274.761 71.762 274.761 66.9763C274.761 63.3572 273.333 61.0001 268.705 57.6191C265.077 54.9763 263.934 53.4287 263.934 51.3096C263.934 49.2858 264.934 48.5001 266.705 48.5001C268.448 48.5001 269.448 49.2858 269.448 51.381V52.881H274.676V51.6906C274.676 47.0001 272.019 44.3096 266.648 44.3096C261.278 44.3096 258.421 47.0001 258.421 51.5953C258.421 54.9525 259.935 57.3334 264.534 60.7144C268.162 63.3572 269.248 64.9048 269.248 67.3096C269.248 69.5001 268.162 70.2382 266.391 70.2382C264.649 70.2382 263.534 69.5001 263.534 67.4049V65.4049H258.307V67.0715C258.307 71.762 261.02 74.4287 266.448 74.4287ZM282.246 74.0001H287.76V48.9287H293.53V44.7382H276.475V48.9287H282.246V74.0001ZM303.986 74.4287C309.385 74.4287 312.356 71.762 312.356 67.0715V51.6906C312.356 47.0001 309.385 44.3096 303.986 44.3096C298.558 44.3096 295.587 47.0001 295.587 51.6906V67.0715C295.587 71.762 298.558 74.4287 303.986 74.4287ZM303.986 70.2382C302.215 70.2382 301.129 69.4525 301.129 67.3572V51.381C301.129 49.2858 302.215 48.5001 303.986 48.5001C305.728 48.5001 306.843 49.2858 306.843 51.381V67.3572C306.843 69.4525 305.728 70.2382 303.986 70.2382ZM323.24 74.4287C328.668 74.4287 331.582 71.762 331.582 66.9763C331.582 63.3572 330.125 61.0001 325.497 57.6191C321.898 54.9763 320.726 53.4287 320.726 51.3096C320.726 49.2858 321.726 48.5001 323.497 48.5001C325.24 48.5001 326.268 49.2858 326.268 51.381V52.881H331.468V51.6906C331.468 47.0001 328.811 44.3096 323.44 44.3096C318.07 44.3096 315.213 47.0001 315.213 51.5953C315.213 54.9525 316.727 57.3334 321.326 60.7144C324.954 63.3572 326.068 64.9048 326.068 67.3096C326.068 69.5001 324.954 70.2382 323.183 70.2382C321.441 70.2382 320.326 69.5001 320.326 67.4049V65.4049H315.127V67.0715C315.127 71.762 317.812 74.4287 323.24 74.4287ZM342.523 74.4287C347.837 74.4287 350.636 71.762 350.636 67.2382V63.0953H345.409V67.5715C345.409 69.5001 344.323 70.2382 342.666 70.2382C341.009 70.2382 339.895 69.5001 339.895 67.5715V51.2144C339.895 49.2858 341.009 48.5001 342.666 48.5001C344.323 48.5001 345.409 49.2858 345.409 51.2144V54.5953H350.636V51.5239C350.636 47.0001 347.837 44.3096 342.523 44.3096C337.181 44.3096 334.382 47.0001 334.382 51.5239V67.2382C334.382 71.762 337.181 74.4287 342.523 74.4287ZM353.95 74.0001H359.464V44.7382H353.95V74.0001ZM363.578 74.0001H368.92V69.5715H363.578V74.0001ZM373.033 74.0001H378.547V62.0953H381.146C386.66 62.0953 389.374 59.5477 389.374 54.8572V51.9763C389.374 47.2858 386.66 44.7382 381.146 44.7382H373.033V74.0001ZM378.547 57.9048V48.9287H381.146C382.918 48.9287 383.86 49.5953 383.86 51.6906V55.1429C383.86 57.2382 382.918 57.9048 381.146 57.9048H378.547ZM392.402 74.0001H407V69.8334H397.916V44.7382H392.402V74.0001Z" fill="#0059B1"/>
<path d="M92.7586 74.4286C99.3576 74.4286 102.871 71.1905 102.871 65.4048C102.871 60.9762 101.1 58.1429 95.501 54.0238C91.1302 50.8334 89.7304 48.9524 89.7304 46.3572C89.7304 43.9286 90.9303 42.9524 93.0728 42.9524C95.2154 42.9524 96.4152 43.9286 96.4152 46.4524V48.2857H102.757V46.8096C102.757 41.1191 99.529 37.881 93.0157 37.881C86.5023 37.881 83.0171 41.1191 83.0171 46.7143C83.0171 50.7619 84.8454 53.6667 90.4446 57.7857C94.844 60.9762 96.1867 62.8572 96.1867 65.8096C96.1867 68.4286 94.844 69.3572 92.7014 69.3572C90.5875 69.3572 89.2448 68.4286 89.2448 65.9048V63.4524H82.9028V65.5C82.9028 71.1905 86.1881 74.4286 92.7586 74.4286Z" fill="#0059B1"/>
<path d="M207.914 74.4286C214.37 74.4286 217.77 71.1905 217.77 65.6905V60.6667H211.456V66.0953C211.456 68.4286 210.113 69.3572 208.085 69.3572C206.085 69.3572 204.743 68.4286 204.743 66.0953V46.2619C204.743 43.9286 206.085 42.9524 208.085 42.9524C210.113 42.9524 211.456 43.9286 211.456 46.2619V50.3572H217.77V46.6191C217.77 41.1191 214.37 37.881 207.914 37.881C201.458 37.881 198.058 41.1191 198.058 46.6191V65.6905C198.058 71.1905 201.458 74.4286 207.914 74.4286Z" fill="#0059B1"/>
<path fill-rule="evenodd" clip-rule="evenodd" d="M0 30.4762L37.1377 29.6667L47.5362 0C55.3065 36.7619 73.8754 65.0238 95.3295 91C73.3326 73.9048 56.5635 49.5 45.7936 26.9286L42.5369 36.2143L24.6251 36.6429L39.423 45.0714L34.3095 59.4762L48.4789 50.2619L67.0192 68.619L49.1074 58.381L20.6257 76.3333L30.71 47.9048L0 30.4762Z" fill="#CED9F0"/>
<path fill-rule="evenodd" clip-rule="evenodd" d="M67.7905 45L65.5908 38.9762L72.0185 34.881L64.1053 34.9048L62.1056 29.4762L93.644 28.6191L67.7905 45Z" fill="#CED9F0"/>
</svg>
